# xmcd
#
# Track frame offsets: 
#        150
#        21163
#        62820
#        94651
#        115251
#        136952
#        150213
#        171918
#        190562
#        219009
#        246130
#        260135
#
# Disc length: 3722 seconds
#
# Revision: 0
# Processed by: cddbd v1.5.2PL0 Copyright (c) Steve Scherf et al.
# Submitted via: ExactAudioCopy v0.95a5
#
DISCID=990e880c
DTITLE=江国基 - 原始守猎图
DYEAR=1900
DGENRE=Folk
TTITLE0=三五七
TTITLE1=梅花引
TTITLE2=原始狩猎图
TTITLE3=西子湖畔采茶忙
TTITLE4=早晨
TTITLE5=买菜
TTITLE6=雁荡秋色
TTITLE7=荫中鸟
TTITLE8=牧笛
TTITLE9=雨打芭蕉
TTITLE10=喜讯
TTITLE11=二凡
EXTD=
EXTT0=
EXTT1=
EXTT2=
EXTT3=
EXTT4=
EXTT5=
EXTT6=
EXTT7=
EXTT8=
EXTT9=
EXTT10=
EXTT11=
PLAYORDER=
